<svg xmlns="http://www.w3.org/2000/svg" viewBox="0 0 768 768" role="img" aria-label="H icon on green shield">
  <defs>
    <!-- Vertical green gradient -->
    <linearGradient id="g" x1="0" y1="0" x2="0" y2="1">
      <stop offset="0%"  stop-color="#35D069"/>
      <stop offset="100%" stop-color="#16A34A"/>
    </linearGradient>
  </defs>

  <!-- Rounded hex / shield -->
  <path fill="url(#g)" d="
    M384 96
    C406 96, 477 123, 525 151
    L616 204
    C642 219, 656 238, 656 266
    L656 502
    C656 531, 642 549, 616 564
    L525 617
    C477 645, 406 672, 384 672
    C362 672, 291 645, 243 617
    L152 564
    C126 549, 112 531, 112 502
    L112 266
    C112 238, 126 219, 152 204
    L243 151
    C291 123, 362 96, 384 96
    Z" />

  <!-- H (without arrows) -->
  <g fill="#fff">
    <!-- Left vertical bar -->
    <rect x="274" y="230" width="74" height="286" rx="16" ry="16"/>
    <!-- Right vertical bar -->
    <rect x="420" y="230" width="74" height="286" rx="16" ry="16"/>
    <!-- Horizontal connector -->
    <rect x="274" y="314" width="220" height="64" rx="16" ry="16"/>
  </g>
</svg>